<?xml version="1.0" encoding="utf-8"?>
<!-- Generator: Adobe Illustrator 27.4.1, SVG Export Plug-In . SVG Version: 6.00 Build 0)  -->
<svg version="1.1" id="Capa_1" xmlns="http://www.w3.org/2000/svg" xmlns:xlink="http://www.w3.org/1999/xlink" x="0px" y="0px"
	 viewBox="0 0 1080 1080" style="enable-background:new 0 0 1080 1080;" xml:space="preserve">
<style type="text/css">
	.st0{fill:#3A2D28;}
	.st1{fill:#A48373;}
	.st2{fill:#CBAD8C;}
	.st3{fill:#D1C7BD;}
	.st4{fill:#FFFFFF;}
	.st5{fill:#B37E56;}
</style>
<g>
	<path class="st4" d="M220.95,652.37v37.15h20.8v9.61h-32.57v-46.77H220.95z"/>
	<path class="st4" d="M259.6,652.37v46.77h-11.77v-46.77H259.6z"/>
	<path class="st4" d="M298.19,672.26v9.61h-18.77v17.27h-11.77v-46.77h34.8v9.61h-23.02v10.27H298.19z"/>
	<path class="st4" d="M340.84,670.3v9.61h-20.41v9.61h24.07v9.61h-35.84v-46.77h35.45v9.61h-23.68v8.31H340.84z"/>
	<path class="st4" d="M375.96,652.37v46.77h-11.77v-46.77H375.96z"/>
	<path class="st4" d="M384.01,652.37h14.39l9.61,29.83h0.13l9.61-29.83h14.39v46.77h-11.12v-29.11h-0.13l-8.7,29.11h-8.24
		l-8.7-29.11h-0.13v29.11h-11.12V652.37z"/>
	<path class="st4" d="M440.2,652.37h22.7c9.75,0,15.83,5.1,15.83,14.91c0,9.81-6.08,14.91-15.83,14.91h-10.92v16.94H440.2V652.37z
		 M451.97,672.59h8.44c4.05,0,6.54-1.37,6.54-5.3c0-3.92-2.49-5.3-6.54-5.3h-8.44V672.59z"/>
	<path class="st4" d="M484.48,652.37h22.04c10.4,0,16.68,4.77,16.68,13.6c0,6.21-3.66,10.14-9.48,11.45v0.13
		c11.71,2.03,7.46,20.15,10.14,20.93v0.65h-12.23c-2.29-1.96,1.96-16.29-8.04-16.29h-7.33v16.29h-11.77V652.37z M496.25,673.24h7.98
		c4.71,0,7.2-1.7,7.2-5.62c0-3.92-2.49-5.62-7.2-5.62h-7.98V673.24z"/>
	<path class="st4" d="M528.1,675.72c0-14.06,8.31-24.4,23.15-24.4c14.72,0,23.15,10.33,23.15,24.4c0,14.13-8.44,24.46-23.15,24.46
		C536.41,700.19,528.1,689.85,528.1,675.72z M562.64,675.72c0-8.11-2.88-14.78-11.38-14.78c-8.57,0-11.38,6.67-11.38,14.78
		c0,8.18,2.81,14.85,11.38,14.85C559.76,690.57,562.64,683.9,562.64,675.72z"/>
	<path class="st4" d="M587.43,652.37l8.83,32.77h0.13l8.9-32.77h12.43l-15.17,46.77h-12.43l-15.17-46.77H587.43z"/>
	<path class="st4" d="M654.67,670.3v9.61h-20.41v9.61h24.07v9.61h-35.84v-46.77h35.45v9.61h-23.68v8.31H654.67z"/>
	<path class="st4" d="M665.2,652.37h14.39l9.61,29.83h0.13l9.61-29.83h14.39v46.77h-11.12v-29.11h-0.13l-8.7,29.11h-8.24l-8.7-29.11
		h-0.13v29.11H665.2V652.37z"/>
	<path class="st4" d="M753.57,670.3v9.61h-20.41v9.61h24.07v9.61h-35.84v-46.77h35.45v9.61h-23.68v8.31H753.57z"/>
	<path class="st4" d="M764.1,652.37h11.77l16.35,27.8h0.13v-27.8h11.77v46.77h-11.77L776,671.34h-0.13v27.8H764.1V652.37z"/>
	<path class="st4" d="M822.7,661.99h-13.6v-9.61h38.92v9.61h-13.54v37.15H822.7V661.99z"/>
</g>
<g>
	<path class="st4" d="M386.78,569.11v49.08h-4.98v-39.27l-19.28,33.03h-2.45l-19.28-32.82v39.06h-4.98v-49.08h4.28l21.32,36.39
		l21.11-36.39H386.78z"/>
	<path class="st4" d="M412.76,615.36c-3.95-2.17-7.04-5.15-9.26-8.94c-2.22-3.79-3.33-8.04-3.33-12.76c0-4.72,1.11-8.98,3.33-12.76
		c2.22-3.79,5.31-6.77,9.26-8.94c3.95-2.17,8.36-3.26,13.22-3.26c4.86,0,9.24,1.08,13.15,3.23c3.9,2.15,6.98,5.13,9.22,8.94
		c2.24,3.81,3.37,8.08,3.37,12.8c0,4.72-1.12,8.99-3.37,12.8c-2.24,3.81-5.32,6.79-9.22,8.94c-3.9,2.15-8.29,3.23-13.15,3.23
		C421.11,618.62,416.71,617.53,412.76,615.36z M436.49,611.36c3.13-1.75,5.59-4.18,7.36-7.29c1.78-3.11,2.66-6.58,2.66-10.41
		c0-3.83-0.89-7.3-2.66-10.41c-1.78-3.11-4.23-5.54-7.36-7.29c-3.13-1.75-6.64-2.63-10.52-2.63s-7.4,0.88-10.55,2.63
		c-3.16,1.75-5.63,4.18-7.43,7.29c-1.8,3.11-2.7,6.58-2.7,10.41c0,3.83,0.9,7.3,2.7,10.41c1.8,3.11,4.28,5.54,7.43,7.29
		s6.67,2.63,10.55,2.63S433.36,613.11,436.49,611.36z"/>
	<path class="st4" d="M506.12,569.11v49.08h-4.28l-31.55-39.83v39.83h-5.19v-49.08h4.28L501,608.94v-39.83H506.12z"/>
	<path class="st4" d="M554.64,605.09H527.3l-5.89,13.11h-5.4l22.44-49.08h5.12L566,618.2h-5.47L554.64,605.09z M552.75,600.88
		l-11.78-26.36l-11.78,26.36H552.75z"/>
	<path class="st4" d="M609.41,618.2l-11.22-15.78c-1.26,0.14-2.57,0.21-3.93,0.21h-13.18v15.57h-5.19v-49.08h18.37
		c6.26,0,11.17,1.5,14.72,4.49c3.55,2.99,5.33,7.11,5.33,12.34c0,3.83-0.97,7.07-2.91,9.71c-1.94,2.64-4.71,4.55-8.31,5.71
		l11.99,16.83H609.41z M605.27,594.99c2.57-2.15,3.86-5.16,3.86-9.04c0-3.97-1.29-7.02-3.86-9.15c-2.57-2.13-6.29-3.19-11.15-3.19
		h-13.04v24.61h13.04C598.98,598.21,602.7,597.14,605.27,594.99z"/>
	<path class="st4" d="M636.51,615.39c-3.9-2.15-6.97-5.13-9.19-8.94c-2.22-3.81-3.33-8.08-3.33-12.8c0-4.72,1.11-8.99,3.33-12.8
		c2.22-3.81,5.29-6.79,9.22-8.94c3.93-2.15,8.32-3.23,13.18-3.23c3.65,0,7.01,0.61,10.1,1.82c3.08,1.22,5.7,2.99,7.85,5.33l-3.3,3.3
		c-3.83-3.88-8.67-5.82-14.51-5.82c-3.88,0-7.41,0.89-10.59,2.66c-3.18,1.78-5.67,4.21-7.47,7.29c-1.8,3.09-2.7,6.55-2.7,10.38
		c0,3.83,0.9,7.29,2.7,10.38c1.8,3.09,4.29,5.52,7.47,7.29c3.18,1.78,6.71,2.67,10.59,2.67c5.89,0,10.73-1.96,14.51-5.89l3.3,3.3
		c-2.15,2.34-4.78,4.13-7.89,5.36c-3.11,1.24-6.49,1.86-10.13,1.86C644.79,618.62,640.41,617.54,636.51,615.39z"/>
	<path class="st4" d="M710.03,605.09h-27.35l-5.89,13.11h-5.4l22.44-49.08h5.12l22.44,49.08h-5.47L710.03,605.09z M708.13,600.88
		l-11.78-26.36l-11.78,26.36H708.13z"/>
</g>
<path class="st4" d="M550.3,498.37c3.4-3.99,6.42-8.17,8.89-11.9c3.83-5.79,7.69-13.21,4.4-15.72c-5.68-4.34-13.17-0.11-18.93,4.03
	c-5.96,4.28-34.35,32.31-36.12,34.05c1.16-1.42,17.3-21.17,20.07-30.44c2.88-9.62-3.09-12.1-11.67-8.69
	c-8.59,3.42-45.83,39.21-45.83,39.21l11.27-20.69c0,0,12.84-21.29,10.03-24.2c-2.75-2.84-6.78-2.08-13.13,5.59
	c-16.55,19.34-38.18,34.96-38.18,34.96l1.87,8.28c14.55-8.2,26.74-20.92,27.3-21.51c-0.43,0.81-14.21,24.43-17.37,30.66
	c-3.21,6.31-4.76,9.72-2.9,11.07c1.85,1.34,3.41,1.45,7.24-1.3c3.82-2.75,27.3-23.38,27.3-23.38l32.79-29.28
	c-3.41,5.37-22.13,34.87-25.76,39.62c-3.61,4.76-8.69,10.56-4.44,13.86c4.24,3.32,7.96-1.14,7.96-1.14s14.59-13.03,26.18-23.69
	c22.86-21.21,27.79-23.55,28.07-23.67c-4.53,4.79-13.4,16.24-16.54,21.6c-1.08,1.85-3.43,7.83-3.83,9.9
	c-1.86,9.52,3.62,14.65,8.44,17.1c0.45,0.23,1.05,0.43,1.66,0.6c1.56,0.42,3.18,0.6,4.79,0.6h73.79v-99.98l-88.98-65.1l-89.14,66.02
	l12.9,5.52l76.39-56.34l76.73,56.6v81.18l-37.14,0.03c-25.94,0.65-26.1-1.9-27.33-4.82C539.53,513.3,541.51,508.69,550.3,498.37z"/>
</svg>
