<?xml version="1.0" encoding="UTF-8"?>
<svg id="Capa_1" data-name="Capa 1" xmlns="http://www.w3.org/2000/svg" viewBox="0 0 178.12 165.08">
  <defs>
    <style>
      .cls-1 {
        fill: #fff;
        stroke-width: 0px;
      }
    </style>
  </defs>
  <path class="cls-1" d="M110.76,129.56c3.4-3.99,6.42-8.17,8.89-11.9,3.83-5.79,7.69-13.21,4.4-15.72-5.68-4.34-13.17-.11-18.93,4.03-5.96,4.28-34.35,32.31-36.12,34.05,1.16-1.42,17.3-21.17,20.07-30.44,2.88-9.62-3.09-12.1-11.67-8.69-8.59,3.42-45.83,39.21-45.83,39.21l11.27-20.69s12.84-21.29,10.03-24.2c-2.75-2.84-6.78-2.08-13.13,5.59C23.19,120.14,1.56,135.76,1.56,135.76l1.87,8.28c14.55-8.2,26.74-20.92,27.3-21.51-.43.81-14.21,24.43-17.36,30.66-3.21,6.31-4.76,9.72-2.9,11.07,1.85,1.34,3.41,1.45,7.24-1.3,3.82-2.75,27.3-23.38,27.3-23.38l32.79-29.28c-3.41,5.37-22.13,34.87-25.76,39.62-3.61,4.76-8.69,10.56-4.44,13.86,4.24,3.32,7.96-1.14,7.96-1.14,0,0,14.59-13.03,26.18-23.69,22.86-21.21,27.79-23.55,28.07-23.67-4.53,4.79-13.4,16.24-16.54,21.6-1.08,1.85-3.43,7.83-3.83,9.9-1.86,9.52,3.62,14.65,8.44,17.1.45.23,1.05.43,1.66.6,1.56.42,3.18.6,4.79.6h73.79v-99.98L89.14,0,0,66.02l12.9,5.52L89.29,15.2l76.73,56.6v81.18l-37.14.03c-25.94.65-26.1-1.9-27.33-4.82-1.55-3.69.42-8.31,9.21-18.63Z"/>
</svg>