<?xml version="1.0" encoding="utf-8"?>
<!-- Generator: Adobe Illustrator 27.4.1, SVG Export Plug-In . SVG Version: 6.00 Build 0)  -->
<svg version="1.1" id="Capa_1" xmlns="http://www.w3.org/2000/svg" xmlns:xlink="http://www.w3.org/1999/xlink" x="0px" y="0px"
	 viewBox="0 0 1080 1080" style="enable-background:new 0 0 1080 1080;" xml:space="preserve">
<style type="text/css">
	.st0{fill:#3A2D28;}
	.st1{fill:#A48373;}
	.st2{fill:#CBAD8C;}
	.st3{fill:#D1C7BD;}
	.st4{fill:#FFFFFF;}
	.st5{fill:#B37E56;}
</style>
<path class="st4" d="M548.13,619.3c5.87-6.89,11.09-14.12,15.35-20.56c6.62-10,13.29-22.81,7.6-27.16
	c-9.82-7.5-22.75-0.19-32.71,6.97c-10.29,7.39-59.34,55.81-62.4,58.82c2.01-2.45,29.88-36.56,34.67-52.58
	c4.98-16.62-5.33-20.9-20.15-15.01c-14.85,5.91-79.16,67.73-79.16,67.73l19.47-35.75c0,0,22.19-36.78,17.32-41.8
	c-4.75-4.91-11.71-3.6-22.68,9.66C396.85,603.02,359.49,630,359.49,630l3.23,14.31c25.13-14.17,46.2-36.14,47.16-37.15
	c-0.75,1.4-24.55,45.87-30,56.62c-5.54,10.89-8.23,16.79-5,19.12c3.2,2.31,5.89,2.5,12.51-2.24c6.59-4.75,47.16-44.05,47.16-44.05
	l56.65-50.57c-5.89,9.28-38.22,60.22-44.49,68.43c-6.24,8.23-15.01,18.24-7.67,23.94c7.32,5.73,13.75-1.96,13.75-1.96
	s25.2-22.51,45.21-40.91c39.49-36.63,48-40.68,48.49-40.89c-7.83,8.28-23.15,28.05-28.57,37.31c-1.87,3.2-5.92,13.52-6.62,17.1
	c-3.21,16.45,6.25,25.31,14.58,29.54c0.78,0.4,1.81,0.74,2.87,1.03c2.69,0.73,5.49,1.03,8.28,1.03h127.46v-172.7L510.78,395.51
	L356.81,509.55l22.28,9.54l131.95-97.33l132.54,97.77v140.23h-64.15c-44.81,1.13-45.09-3.24-47.21-8.28
	C529.53,645.1,532.94,637.13,548.13,619.3z"/>
</svg>
